<?xml version="1.0" encoding="UTF-8"?>
<svg width="163px" height="163px" viewBox="0 0 163 163" version="1.1" xmlns="http://www.w3.org/2000/svg" xmlns:xlink="http://www.w3.org/1999/xlink">
    <!-- Generator: Sketch 42 (36781) - http://www.bohemiancoding.com/sketch -->
    <title>Recipient</title>
    <desc>Created with Sketch.</desc>
    <defs></defs>
    <g id="Page-1" stroke="none" stroke-width="1" fill="none" fill-rule="evenodd">
        <g id="Calling" transform="translate(-639.000000, -211.000000)">
            <g transform="translate(612.000000, 212.000000)" id="Recipient">
                <g transform="translate(28.000000, 0.000000)">
                    <g id="Group-8" transform="translate(36.000000, 26.000000)" fill-rule="nonzero">
                        <g id="035-conflicting">
                            <g id="conflicting">
                                <g id="conflicting_1_">
                                    <path d="M41.703003,102.039029 L32.3525415,84.4978215 C32.3525415,84.4978215 31.2389169,81.8209147 25.7083489,84.4978215 C21.9382735,86.3230201 14.0616593,87.1211136 14.0616593,81.5467137 C14.0616593,75.9730796 12.9127789,73.4317414 12.0934638,72.530248 C11.2733824,71.6287547 11.0273579,70.0716297 12.0934638,69.2513244 C12.0934638,69.2513244 11.2733824,68.7596007 10.8633416,68.1039692 C10.4533009,67.4483376 10.2892846,67.2024758 10.8633416,65.481443 C11.4373987,63.7596443 11.1913742,62.5303351 9.8792439,62.5303351 C8.56711357,62.5303351 3.89188283,62.2844733 6.3521272,58.513826 C8.81237157,54.7431786 11.8474394,48.8417288 12.0934638,48.0221894 C12.3394883,47.2026499 12.0114557,45.4816171 11.1093661,43.1041869 C10.2072765,40.7275225 8.73036343,10.2352941 43.0979079,10.2352941 C77.4646859,10.2352941 79.1845577,37.7511391 78.5307918,43.0222329 C77.7176083,49.5793143 75.4137159,55.3995761 70.4104526,61.7107957 C65.4071892,68.0220152 64.8683881,73.8238949 66.8365836,76.7742368" id="Shape" fill="#A8DFF4" transform="translate(42.137880, 56.137162) scale(-1, 1) translate(-42.137880, -56.137162) "></path>
                                    <path d="M49.3117685,99.9188235 L47.8564537,99.1447059 L57.9101574,80.2842353 C57.9192222,80.2521176 58.3320833,79.3347059 59.5995093,78.8537647 C61.2056296,78.2427059 63.4067315,78.6067059 66.1410093,79.9301176 C69.0549352,81.34 73.6994167,81.8950588 75.9697407,80.4744706 C76.9866481,79.8378824 77.4802685,78.8636471 77.4802685,77.4982353 C77.4802685,70.5616471 79.110287,68.0202353 79.81075,67.2502353 C80.1857037,66.8384706 80.3991389,66.2488235 80.3546389,65.7481176 C80.3241481,65.4047059 80.177463,65.1304706 79.9178796,64.9311765 L78.9594815,64.1941176 L79.9961667,63.5723529 C80.1947685,63.4521176 80.7724444,63.0428235 81.0443889,62.608 C81.3839074,62.0661176 81.4523056,61.9565882 80.9611574,60.4849412 C80.4650648,58.9968235 80.4914352,57.8101176 81.0386204,57.0524706 C81.3097407,56.6761176 81.8355,56.2281176 82.8013148,56.2281176 C84.6563056,56.2281176 86.0811296,55.8122353 86.430537,55.1674118 C86.718963,54.6362353 86.3028056,53.7945882 85.9031296,53.1827059 C83.3559167,49.2791765 79.9516667,42.756 79.6302778,41.6887059 C79.299,40.5843529 79.6615926,38.6276471 80.7073426,35.8721176 C81.2273333,34.5009412 81.8297315,23.1782353 75.5634722,14.1054118 C69.8559352,5.83882353 60.2736019,1.64705882 47.0851204,1.64705882 C34.0218981,1.64705882 24.1049907,5.37023529 17.611287,12.7136471 C9.95811111,21.3681176 9.39774074,32.6908235 9.80483333,35.9750588 C10.7080185,43.26 13.3475278,49.3310588 18.3636667,55.6590588 C23.8107963,62.5297647 24.1766852,70.0947059 21.7547315,73.7248235 L19.6385093,76.8978824 L18.26725,75.9845882 L20.3834722,72.8115294 C22.1816019,70.1169412 22.3422963,63.3302353 17.0715185,56.6827059 C11.8567778,50.1035294 9.11096296,43.7804706 8.1690463,36.1784706 C7.70674074,32.4528235 8.28112037,20.7776471 16.376,11.6241176 C23.1968611,3.91094118 33.5291019,0 47.0851204,0 C60.8471574,0 70.8852037,4.43141176 76.9215463,13.1707059 C83.68225,22.96 82.9232778,34.6829412 82.2500093,36.456 C81.2339259,39.1324706 81.0468611,40.67 81.2108519,41.2151765 C81.4366481,41.9670588 84.5986204,48.1657647 87.2851019,52.2825882 C88.2220741,53.7188235 88.4223241,54.9532941 87.8817315,55.9514118 C86.9744259,57.6248235 84.3110185,57.8743529 82.802963,57.8743529 C82.4782778,57.8743529 82.402463,57.9797647 82.3769167,58.0143529 C82.2186944,58.2334118 82.1634815,58.8749412 82.5260741,59.9636471 C83.1985185,61.9804706 83.0402963,62.5264706 82.4510833,63.4677647 C82.2186944,63.84 81.9071944,64.1611765 81.6204167,64.4115294 C81.8289074,64.7672941 81.958287,65.1708235 81.9970185,65.6023529 C82.0827222,66.5683529 81.7217778,67.5985882 81.0312037,68.3578824 C80.7139352,68.7070588 79.1292407,70.7897647 79.1292407,77.4982353 C79.1292407,79.422 78.3397778,80.934 76.8457315,81.8695294 C73.6944722,83.8435294 68.2687685,82.7902353 65.4232407,81.4116471 C61.4413148,79.4845882 59.7363056,80.3056471 59.3901944,81.0081176 L49.3117685,99.9188235 Z" id="Shape" fill="#000000"></path>
                                </g>
                            </g>
                        </g>
                    </g>
                </g>
            </g>
        </g>
    </g>
</svg>